<?xml version="1.0" standalone="no"?>
<!DOCTYPE svg PUBLIC "-//W3C//DTD SVG 20010904//EN"
 "http://www.w3.org/TR/2001/REC-SVG-20010904/DTD/svg10.dtd">
<svg version="1.0" xmlns="http://www.w3.org/2000/svg"
 width="37.000000pt" height="1024.000000pt" viewBox="0 0 1024.000000 1024.000000"
 preserveAspectRatio="xMidYMid meet">
<g transform="translate(0.000000,900.000000) scale(0.095000,-0.090000)"
fill="#235163" stroke="none">
<path d="M4330 9784 c0 -3 25 -78 54 -167 267 -793 274 -1394 21 -1912 -187
-383 -449 -658 -1165 -1220 -634 -499 -882 -715 -1124 -982 -361 -400 -563
-725 -707 -1143 -319 -921 -221 -1891 264 -2615 104 -156 187 -256 336 -406
325 -326 693 -561 1178 -752 233 -92 706 -234 751 -225 11 2 -5 16 -43 37
-433 242 -784 670 -954 1165 -220 637 -173 1313 134 1941 138 282 297 505 532
745 l153 155 -15 -52 c-48 -165 -85 -422 -85 -591 0 -297 74 -570 210 -773 59
-87 192 -215 276 -265 165 -97 300 -129 508 -121 144 6 176 12 354 66 420 126
785 45 1048 -231 209 -220 310 -534 284 -878 -36 -467 -222 -772 -606 -996
l-79 -46 54 7 c89 10 402 93 559 147 380 131 734 322 1032 559 131 104 422
393 522 519 391 494 639 1071 740 1720 30 198 33 690 5 870 -40 252 -110 473
-227 717 -82 171 -138 268 -330 568 -235 368 -319 534 -371 732 -31 115 -37
339 -14 470 23 128 80 302 144 438 28 59 49 111 46 114 -10 9 -197 -19 -297
-44 -138 -35 -261 -87 -364 -154 -115 -75 -179 -134 -254 -233 -191 -253 -275
-602 -254 -1058 14 -304 10 -400 -20 -503 -46 -155 -114 -266 -234 -379 -257
-242 -623 -286 -892 -107 -94 63 -175 152 -219 240 -50 100 -64 169 -59 288 8
179 83 337 246 516 204 225 270 317 373 520 76 151 137 329 174 505 32 153 45
463 26 626 -51 433 -236 851 -548 1239 -168 210 -443 468 -693 652 -152 111
-445 303 -464 303 -3 0 -6 -3 -6 -6z"/>
</g>
</svg>
